# Blender v2.78 (sub 0) OBJ File: 'biomass_generator_onepiece.blend'
# www.blender.org
mtllib biomassGenerator.mtl
o generator_Cube.001
v 3.500000 2.500000 -3.000000
v 3.500000 3.000000 -3.000000
v 3.500000 3.000000 -2.500000
v 4.000000 2.500000 -3.000000
v 4.000000 2.500000 -2.500000
v 4.000000 3.000000 -3.000000
v 4.000000 3.000000 -2.500000
v 2.000000 3.000000 -3.000000
v 2.000000 2.500000 -3.000000
v 2.000000 2.500000 -2.500000
v 2.000000 3.000000 -2.500000
v 1.500000 3.000000 -3.000000
v 1.500000 2.500000 -3.000000
v 1.500000 2.500000 -2.500000
v 1.500000 3.000000 -2.500000
v 2.000000 2.500000 -1.000000
v 2.000000 3.000000 -1.000000
v 1.500000 2.500000 -1.000000
v 1.500000 3.000000 -1.000000
v 3.500000 1.000000 -3.500000
v 3.500000 1.500000 -3.500000
v 3.500000 1.000000 -4.000000
v 3.500000 1.500000 -4.000000
v 4.000000 1.000000 -3.500000
v 4.000000 1.500000 -3.500000
v 4.000000 1.000000 -4.000000
v 4.000000 1.500000 -4.000000
v 2.000000 1.000000 -4.000000
v 2.000000 1.000000 -3.500000
v 2.000000 1.500000 -3.500000
v 2.000000 1.500000 -4.000000
v 1.500000 1.000000 -4.000000
v 1.500000 1.000000 -3.500000
v 1.500000 1.500000 -3.500000
v 1.500000 1.500000 -4.000000
v 2.000000 2.000000 -3.500000
v 2.000000 2.000000 -4.000000
v 1.500000 2.000000 -3.500000
v 1.500000 2.000000 -4.000000
v 1.000000 0.500000 -0.500000
v 1.000000 2.500000 -0.500000
v 1.000000 0.500000 -3.500000
v 1.000000 2.500000 -3.500000
v 3.000000 0.500000 -0.500000
v 3.000000 0.500000 -3.500000
v 3.000000 2.500000 -3.500000
v 4.250000 2.500000 -3.500000
v 4.250000 0.500000 -3.500000
v 4.250000 0.500000 -0.500000
v 4.750000 2.500000 -2.000000
v 4.750000 0.500000 -2.000000
v 3.125000 2.500000 -1.875000
v 3.000000 2.500000 -0.500000
v 4.250000 2.500000 -0.500000
v 3.125000 2.500000 -1.125000
v 3.875000 2.500000 -1.875000
v 3.875000 2.500000 -1.125000
v 4.000000 3.000000 -2.000000
v 3.000000 3.000000 -2.000000
v 3.000000 3.000000 -1.000000
v 4.000000 3.000000 -1.000000
v 3.000000 2.500000 -2.000000
v 4.250000 2.500000 -2.000000
v 4.000000 2.750000 -2.000000
v 3.000000 2.750000 -2.000000
v 3.000000 2.750000 -1.000000
v 4.000000 2.750000 -1.000000
v 3.125000 2.750000 -1.875000
v 3.125000 2.750000 -1.125000
v 3.875000 2.750000 -1.875000
v 3.875000 2.750000 -1.125000
v 3.875000 3.000000 -2.000000
v 3.125000 3.000000 -2.000000
v 3.000000 3.000000 -1.875000
v 3.000000 3.000000 -1.125000
v 3.125000 3.000000 -1.000000
v 3.875000 3.000000 -1.000000
v 4.000000 3.000000 -1.125000
v 4.000000 3.000000 -1.875000
v 3.875000 3.000000 -1.875000
v 3.125000 3.000000 -1.875000
v 3.875000 3.000000 -1.125000
v 3.125000 2.875000 -1.125000
v 3.875000 2.875000 -1.125000
v 3.125000 2.875000 -1.875000
v 3.875000 2.875000 -1.875000
v 3.125000 3.000000 -1.125000
v -0.000000 0.500000 0.000000
v -0.000000 0.750000 0.000000
v -0.000000 0.500000 -0.250000
v -0.000000 0.750000 -0.250000
v 0.250000 0.500000 0.000000
v 0.250000 0.750000 0.000000
v 0.250000 0.500000 -0.250000
v 0.250000 0.750000 -0.250000
v 4.750000 0.750000 -0.250000
v 4.750000 0.500000 -0.250000
v 4.750000 0.500000 0.000000
v 4.750000 0.750000 0.000000
v 5.000000 0.750000 -0.250000
v 5.000000 0.500000 -0.250000
v 5.000000 0.500000 0.000000
v 5.000000 0.750000 0.000000
v 4.750000 0.750000 -3.750000
v 4.750000 0.500000 -3.750000
v 5.000000 0.750000 -3.750000
v 5.000000 0.500000 -3.750000
v 4.750000 0.750000 -4.000000
v 4.750000 0.500000 -4.000000
v 5.000000 0.750000 -4.000000
v 5.000000 0.500000 -4.000000
v 0.250000 0.750000 -4.000000
v 0.250000 0.500000 -4.000000
v 0.000000 0.750000 -4.000000
v 0.250000 0.500000 -3.750000
v 0.000000 0.750000 -3.750000
v 0.000000 0.500000 -3.750000
v 0.250000 0.750000 -3.750000
v -0.000000 2.750000 0.000000
v -0.000000 2.750000 -0.250000
v 0.250000 2.750000 0.000000
v 4.750000 2.750000 -0.250000
v 4.750000 2.750000 0.000000
v 5.000000 2.750000 -0.250000
v 5.000000 2.750000 0.000000
v 5.000000 2.750000 -4.000000
v 4.750000 2.750000 -4.000000
v 0.250000 2.750000 -4.000000
v 0.000000 2.750000 -4.000000
v -0.000000 3.000000 0.000000
v -0.000000 3.000000 -0.250000
v 0.250000 3.000000 -0.250000
v 4.750000 3.000000 -0.250000
v 4.750000 3.000000 0.000000
v 5.000000 3.000000 -0.250000
v 5.000000 3.000000 0.000000
v 5.000000 3.000000 -3.750000
v 5.000000 3.000000 -4.000000
v 4.750000 3.000000 -4.000000
v 0.250000 3.000000 -4.000000
v 0.000000 3.000000 -3.750000
v 0.000000 3.000000 -4.000000
v 5.000000 2.750000 -3.750000
v 4.750000 2.750000 -3.750000
v 4.750000 3.000000 -3.750000
v 0.250000 2.750000 -0.250000
v 0.250000 2.750000 -3.750000
v 0.250000 3.000000 0.000000
v 0.250000 3.000000 -3.750000
v 4.000000 0.750000 0.000000
v 3.000000 0.750000 0.000000
v 4.000000 0.750000 -0.250000
v 3.000000 0.750000 -0.250000
v 4.000000 2.000000 -0.250000
v 4.000000 2.000000 0.000000
v 3.000000 2.000000 0.000000
v 3.000000 2.000000 -0.250000
v 1.000000 1.625000 -0.875000
v 0.000000 1.625000 -0.875000
v 0.000000 1.625000 -3.125000
v 1.000000 1.625000 -3.125000
v 0.000000 1.625000 -2.000000
v 0.000000 2.750000 -2.000000
v 1.000000 2.750000 -2.000000
v 0.000000 0.500000 -2.000000
v 0.000000 1.625000 -2.562500
v 0.000000 2.750000 -2.562500
v 1.000000 2.750000 -2.562500
v 0.000000 0.500000 -2.562500
v 1.000000 0.500000 -2.562500
v 1.000000 2.750000 -1.437500
v 0.000000 2.750000 -1.437500
v 1.000000 0.500000 -1.437500
v 0.000000 0.500000 -1.437500
v 0.000000 1.625000 -1.437500
v 0.000000 2.187500 -1.437500
v 1.000000 2.187500 -3.125000
v 0.000000 2.187500 -0.875000
v 0.000000 2.187500 -2.562500
v 0.000000 2.187500 -3.125000
v 0.000000 2.187500 -2.000000
v 0.000000 1.062500 -1.437500
v 0.000000 1.062500 -2.000000
v 0.000000 1.062500 -2.562500
v 0.000000 1.062500 -0.875000
v 0.000000 1.062500 -3.125000
v 1.000000 1.062500 -3.125000
v 5.000000 0.000000 -4.000000
v 5.000000 0.000000 0.000000
v 0.000000 0.000000 0.000000
v 0.000000 0.000000 -4.000000
v 1.000000 2.187499 -0.874975
v 0.000000 0.500000 -4.000000
v -0.000000 2.750000 -3.750000
v 1.000000 1.062500 -0.874962
v 3.500011 2.500000 -2.499960
vt 0.8125 0.7188
vt 0.6875 0.7188
vt 0.6406 0.7031
vt 0.6250 0.1875
vt 0.5625 0.2031
vt 0.5938 0.1875
vt 0.9141 0.7031
vt 0.9141 0.8125
vt 0.8828 0.7188
vt 0.7812 0.2344
vt 0.7812 0.2031
vt 0.8750 0.2031
vt 0.5938 0.5938
vt 0.5938 0.7188
vt 0.5703 0.6289
vt 0.6875 0.2031
vt 0.8359 0.1797
vt 0.7891 0.1797
vt 0.7812 0.1250
vt 0.7891 0.1328
vt 0.8359 0.1328
vt 0.7188 0.1562
vt 0.6875 0.1250
vt 0.9688 0.8125
vt 0.9688 0.8438
vt 0.9375 0.8438
vt 0.9375 0.8125
vt 0.7422 0.4844
vt 0.7500 0.4688
vt 0.7500 0.4844
vt 0.6953 0.5625
vt 0.6875 0.5781
vt 0.6875 0.5625
vt 0.7578 0.5469
vt 0.7734 0.5547
vt 0.7578 0.5547
vt 0.6797 0.5000
vt 0.6641 0.4922
vt 0.6797 0.4922
vt 0.6797 0.5547
vt 0.6641 0.5547
vt 0.6797 0.5469
vt 0.7578 0.4922
vt 0.7734 0.4922
vt 0.7578 0.5000
vt 0.7500 0.5625
vt 0.7500 0.5781
vt 0.7422 0.5625
vt 0.6875 0.4844
vt 0.6875 0.4688
vt 0.6953 0.4844
vt 0.5938 0.4102
vt 0.5586 0.4102
vt 0.5586 0.3750
vt 0.4883 0.4102
vt 0.4531 0.4102
vt 0.4883 0.3750
vt 0.4883 0.4805
vt 0.4883 0.5156
vt 0.4531 0.4805
vt 0.5586 0.4805
vt 0.5938 0.4805
vt 0.5586 0.5156
vt 0.0469 0.3125
vt 0.0312 0.3125
vt 0.0312 0.2812
vt 0.6562 0.8281
vt 0.7578 0.8438
vt 0.4844 0.8438
vt 0.7266 0.8281
vt 0.7578 0.7344
vt 0.6875 0.7773
vt 0.6250 0.7773
vt 0.4688 0.8438
vt 0.4688 0.7695
vt 0.6250 0.7031
vt 0.6250 0.1562
vt 0.6250 0.0625
vt 0.6562 0.0625
vt 0.5312 0.8281
vt 0.3438 0.3125
vt 0.3281 0.3125
vt 0.3438 0.2812
vt 0.3750 0.2656
vt 0.3750 0.2812
vt 0.3750 0.0469
vt 0.3438 0.0312
vt 0.3750 0.0312
vt 0.3438 0.0000
vt 0.3281 0.0000
vt 0.0312 0.0000
vt 0.0469 0.0000
vt 0.0312 0.0312
vt 0.0000 0.2656
vt 0.0000 0.2812
vt 0.0000 0.0312
vt 0.0000 0.0469
vt 0.0000 0.1211
vt 0.0000 0.1562
vt 0.0000 0.1914
vt 0.3594 0.9688
vt 0.5312 0.9531
vt 0.6406 0.9688
vt 0.3594 0.9219
vt 0.5312 0.9375
vt 0.3594 0.9375
vt 0.5938 0.9375
vt 0.6406 0.9219
vt 0.6406 0.9375
vt 0.5938 0.9531
vt 0.6406 0.9531
vt 0.5703 0.6641
vt 0.5703 0.6992
vt 0.5938 0.1562
vt 0.5625 0.1250
vt 0.6875 0.0000
vt 0.6250 0.0312
vt 0.6562 0.0312
vt 0.5938 0.0312
vt 0.5938 0.0625
vt 0.5625 0.0000
vt 0.4297 0.6289
vt 0.4062 0.5938
vt 0.4648 0.5938
vt 0.4297 0.6641
vt 0.7188 0.0625
vt 0.7500 0.0312
vt 0.8750 0.0000
vt 0.8438 0.0312
vt 0.3906 0.4805
vt 0.3555 0.5156
vt 0.3906 0.4453
vt 0.3555 0.3750
vt 0.3906 0.4102
vt 0.4297 0.6992
vt 0.4062 0.7188
vt 0.7188 0.0312
vt 0.7500 0.1875
vt 0.7188 0.1875
vt 0.7500 0.0625
vt 0.7500 0.1562
vt 0.8438 0.0625
vt 0.7422 0.5859
vt 0.6562 0.5469
vt 0.6953 0.4609
vt 0.7812 0.5469
vt 0.9688 0.7812
vt 0.9375 0.7812
vt 1.0000 0.8438
vt 1.0000 0.8125
vt 0.9062 0.8125
vt 0.9062 0.8438
vt 0.9375 0.9688
vt 0.9375 0.9375
vt 0.9688 0.9375
vt 0.9688 0.9688
vt 1.0000 0.9375
vt 0.9688 1.0000
vt 0.9375 1.0000
vt 1.0000 0.9688
vt 0.8438 1.0000
vt 0.8125 1.0000
vt 0.8125 0.9688
vt 0.8438 0.9688
vt 0.7188 1.0000
vt 0.7188 0.9688
vt 0.8438 0.9375
vt 0.7812 0.4062
vt 0.6875 0.4062
vt 0.6875 0.3750
vt 0.7812 0.3750
vt 0.6562 0.3438
vt 0.6875 0.3438
vt 0.6562 0.3750
vt 0.6250 0.3438
vt 0.6250 0.3750
vt 0.6875 0.3125
vt 0.6562 0.3125
vt 0.6562 0.4062
vt 0.8125 0.3750
vt 0.7812 0.3438
vt 0.8125 0.3438
vt 0.7812 0.3125
vt 0.8438 0.3438
vt 0.8438 0.3750
vt 0.8125 0.3125
vt 0.8438 0.4062
vt 0.8438 0.4375
vt 0.8125 0.4375
vt 0.8125 0.4062
vt 0.8438 0.4688
vt 0.8125 0.4688
vt 0.7812 0.4062
vt 0.3750 0.8438
vt 0.3594 0.8438
vt 0.3594 0.5625
vt 0.3750 0.5625
vt 0.8750 0.1250
vt 1.0000 0.3047
vt 0.8750 0.3047
vt 1.0000 0.2031
vt 0.3438 0.9062
vt 0.3438 0.8906
vt 0.4844 0.9062
vt 1.0000 0.0000
vt 1.0000 0.1250
vt 0.5234 0.3750
vt 0.4883 0.3125
vt 0.5234 0.3125
vt 0.2656 0.7969
vt 0.2500 0.7969
vt 0.2500 0.7812
vt 0.2656 0.7812
vt 0.7812 0.5000
vt 0.7969 0.5000
vt 0.7969 0.5469
vt 0.7812 0.6406
vt 0.7969 0.6406
vt 0.7969 0.6875
vt 0.7812 0.6875
vt 0.7812 0.5938
vt 0.7969 0.5938
vt 0.7422 0.5547
vt 0.6953 0.5547
vt 0.6953 0.5469
vt 0.7422 0.5469
vt 0.0312 0.9219
vt 0.1094 0.9219
vt 0.1094 0.9375
vt 0.0312 0.9375
vt 0.6875 0.5000
vt 0.6875 0.5469
vt 0.4883 0.5781
vt 0.5234 0.5156
vt 0.5234 0.5781
vt 0.7500 0.5547
vt 0.7500 0.5469
vt 0.7500 0.5000
vt 0.7422 0.4922
vt 0.6953 0.4922
vt 0.5234 0.4805
vt 0.4883 0.4453
vt 0.5234 0.4453
vt 0.5938 0.4453
vt 0.5586 0.4453
vt 0.7422 0.5000
vt 0.6953 0.5000
vt 0.3281 0.9219
vt 0.3438 0.9219
vt 0.3438 0.9375
vt 0.3281 0.9375
vt 0.3125 0.9219
vt 0.3125 0.9375
vt 0.0469 0.7031
vt 0.0469 0.5781
vt 0.0625 0.5781
vt 0.0625 0.7031
vt 0.3281 0.8750
vt 0.3125 0.8750
vt 0.3125 0.8594
vt 0.3281 0.8594
vt 0.3594 0.9531
vt 0.3438 0.8594
vt 0.3438 0.8750
vt 0.5234 0.4102
vt 0.6055 0.5781
vt 0.5586 0.5781
vt 0.6055 0.5156
vt 0.6250 0.8906
vt 0.6250 0.8750
vt 0.0469 0.5625
vt 0.0625 0.5625
vt 0.0000 0.9531
vt 0.2812 0.9531
vt 0.2812 0.9688
vt 0.0000 0.9688
vt 0.0156 0.7031
vt 0.0156 0.5781
vt 0.0312 0.5781
vt 0.0312 0.7031
vt 0.0312 0.5625
vt 0.2812 0.9844
vt 0.0000 0.9844
vt 0.2812 1.0000
vt 0.0000 1.0000
vt 0.4531 0.4453
vt 0.6875 0.5547
vt 0.5586 0.3125
vt 0.6055 0.3125
vt 0.6055 0.3750
vt 0.6562 0.2656
vt 0.4375 0.2656
vt 0.4375 0.2500
vt 0.6562 0.2500
vt 0.2031 0.6719
vt 0.1875 0.6719
vt 0.1875 0.6562
vt 0.2031 0.6562
vt 0.2344 0.6562
vt 0.2344 0.7812
vt 0.2188 0.7812
vt 0.2188 0.6562
vt 0.4062 0.2188
vt 0.4062 0.0938
vt 0.4219 0.0938
vt 0.4219 0.2188
vt 0.2656 0.6562
vt 0.2500 0.6562
vt 0.2812 0.4062
vt 0.2812 0.3906
vt 0.2969 0.3906
vt 0.2969 0.4062
vt 0.4375 0.2188
vt 0.4375 0.0938
vt 0.4531 0.0938
vt 0.4531 0.2188
vt 0.3281 0.4062
vt 0.3281 0.5312
vt 0.3125 0.5312
vt 0.3125 0.4062
vt 0.0000 0.7031
vt 0.0000 0.5781
vt 0.4688 0.0938
vt 0.4688 0.2188
vt 0.2812 0.6562
vt 0.2812 0.7812
vt 0.2812 0.3750
vt 0.2969 0.3750
vt 0.4219 0.2500
vt 0.4062 0.2500
vt 0.4062 0.2344
vt 0.4219 0.2344
vt 0.6719 0.2500
vt 0.6562 0.2344
vt 0.6719 0.2344
vt 0.3125 0.3906
vt 0.2188 0.6719
vt 0.2188 0.6875
vt 0.2031 0.6875
vt 0.2344 0.4375
vt 0.2500 0.4375
vt 0.0469 0.7188
vt 0.0625 0.7188
vt 0.6562 0.2188
vt 0.6719 0.2188
vt 0.2031 0.4375
vt 0.2188 0.4375
vt 0.2188 0.6562
vt 0.4375 0.2344
vt 0.3438 0.8438
vt 0.3281 0.8438
vt 0.3281 0.5625
vt 0.3438 0.5625
vt 0.6562 0.2812
vt 0.4375 0.2812
vt 0.1875 0.4375
vt 0.0000 0.3750
vt 0.0000 0.3906
vt 0.3125 0.8438
vt 0.3125 0.5625
vt 0.2812 0.3594
vt 0.0000 0.3594
vt 0.0000 0.3438
vt 0.2812 0.3438
vt 0.1094 0.8594
vt 0.1250 0.8594
vt 0.1250 0.9219
vt 0.0312 0.8594
vt 0.0312 0.8438
vt 0.1094 0.8438
vt 0.5312 0.7695
vt 0.2812 0.7969
vt 0.3438 0.4062
vt 0.3438 0.5312
vt 0.6250 0.8594
vt 0.2344 0.7969
vt 0.6875 0.4922
vt 0.7500 0.4922
vt 0.4375 0.5781
vt 0.4375 0.5156
vt 0.2969 0.5312
vt 0.2812 0.5312
vt 0.5352 0.5938
vt 0.0000 0.4062
vt 0.2031 0.8594
vt 0.2031 0.9219
vt 1.0000 0.4062
vt 0.8750 0.4062
vt 0.9062 0.9375
vt 0.4375 0.3750
vt 0.4375 0.3125
vt 0.6953 0.5859
vt 0.6562 0.5000
vt 0.7422 0.4609
vt 0.6250 0.9062
vn 0.0000 1.0000 0.0000
vn 0.0000 0.0000 -1.0000
vn -1.0000 0.0000 -0.0000
vn 0.0000 0.0000 1.0000
vn 1.0000 0.0000 0.0000
vn 0.0000 -1.0000 0.0000
vn 0.9487 0.0000 0.3162
vn -0.0000 -0.7071 0.7071
vn 0.0000 -0.7071 -0.7071
vn -0.0000 0.7071 0.7071
vn 0.9487 0.0000 -0.3162
vn 0.0000 0.7071 -0.7071
usemtl None
s off
f 44/1/1 40/2/1 94/3/1
f 25/4/2 48/5/2 24/6/2
f 97/7/1 51/8/1 49/9/1
f 50/10/1 63/11/1 54/12/1
f 44/1/1 97/7/1 49/9/1
f 40/13/3 41/14/3 195/15/3
f 47/16/1 63/11/1 50/10/1
f 63/11/1 57/17/1 54/12/1
f 56/18/1 62/19/1 52/20/1
f 62/19/1 55/21/1 52/20/1
f 1/22/1 47/16/1 46/23/1
f 6/24/1 2/25/1 3/26/1 7/27/1
f 77/28/4 67/29/4 61/30/4
f 73/31/2 65/32/2 59/33/2
f 79/34/5 64/35/5 58/36/5
f 75/37/3 66/38/3 60/39/3
f 59/40/3 65/41/3 74/42/3
f 61/43/5 67/44/5 78/45/5
f 58/46/2 64/47/2 72/48/2
f 60/49/4 66/50/4 76/51/4
f 169/52/3 184/53/3 186/54/3
f 179/55/3 167/56/3 180/57/3
f 176/58/3 178/59/3 172/60/3
f 182/61/3 174/62/3 185/63/3
f 92/64/4 88/65/4 190/66/4
f 45/67/1 105/68/1 115/69/1
f 48/70/1 51/71/1 105/68/1
f 40/2/1 173/72/1 174/73/1 94/3/1
f 117/74/1 169/75/1 115/69/1
f 174/73/1 90/76/1 94/3/1
f 46/23/2 21/77/2 30/78/2 36/79/2
f 45/67/1 48/70/1 105/68/1
f 45/67/1 115/69/1 42/80/1
f 97/7/1 44/1/1 94/3/1
f 102/81/4 98/82/4 189/83/4
f 101/84/5 102/85/5 189/83/5
f 107/86/5 188/87/5 111/88/5
f 111/89/2 188/87/2 109/90/2
f 193/91/2 113/92/2 191/93/2
f 90/94/3 190/66/3 88/95/3
f 193/96/3 191/93/3 117/97/3
f 117/97/3 191/93/3 169/98/3
f 165/99/3 169/98/3 191/93/3
f 90/94/3 174/100/3 190/66/3
f 174/100/3 165/99/3 190/66/3
f 190/66/3 165/99/3 191/93/3
f 94/101/2 153/102/2 97/103/2
f 92/104/4 151/105/4 93/106/4
f 150/107/4 151/105/4 98/108/4
f 98/108/4 99/109/4 150/107/4
f 152/110/2 97/103/2 153/102/2
f 97/103/2 152/110/2 96/111/2
f 158/112/3 195/15/3 41/14/3 192/113/3
f 20/114/2 48/5/2 45/115/2
f 36/79/2 43/116/2 46/23/2
f 34/117/2 43/116/2 38/118/2
f 34/117/2 33/119/2 43/116/2
f 45/115/2 29/120/2 20/114/2
f 29/120/2 42/121/2 33/119/2
f 43/116/2 33/119/2 42/121/2
f 187/122/3 42/123/3 170/124/3
f 161/125/3 42/123/3 187/122/3
f 9/126/1 1/22/1 46/23/1
f 14/127/1 41/128/1 18/129/1
f 171/130/5 192/131/5 164/132/5
f 164/132/5 177/133/5 168/134/5
f 177/135/3 43/136/3 161/125/3
f 192/131/5 177/133/5 164/132/5
f 14/127/1 13/137/1 43/116/1
f 9/126/1 43/116/1 13/137/1
f 5/138/1 47/16/1 4/139/1
f 10/140/1 62/19/1 196/141/1
f 98/82/4 92/64/4 190/66/4 189/83/4
f 41/128/1 16/142/1 18/129/1
f 70/143/6 65/32/6 64/47/6
f 68/144/6 66/38/6 65/41/6
f 69/145/6 67/29/6 66/50/6
f 67/44/6 70/146/6 64/35/6
f 4/147/5 6/24/5 7/27/5 5/148/5
f 1/149/2 2/25/2 6/24/2 4/150/2
f 5/151/4 7/27/4 3/26/4 196/152/4
f 15/153/1 11/154/1 8/155/1 12/156/1
f 8/155/2 2/25/2 1/149/2 9/157/2
f 11/154/1 3/26/1 2/25/1 8/155/1
f 12/156/3 13/158/3 14/159/3 15/153/3
f 12/156/2 8/155/2 9/157/2 13/160/2
f 18/161/4 16/162/4 17/163/4 19/164/4
f 19/164/3 15/153/3 14/159/3 18/161/3
f 16/162/5 10/165/5 11/166/5 17/163/5
f 17/167/1 11/154/1 15/153/1 19/164/1
f 30/168/1 21/169/1 23/170/1 31/171/1
f 26/172/2 22/173/2 23/170/2 27/174/2
f 24/175/5 26/172/5 27/174/5 25/176/5
f 20/177/6 22/173/6 26/172/6 24/178/6
f 25/179/1 27/174/1 23/170/1 21/169/1
f 35/180/2 31/171/2 28/181/2 32/182/2
f 28/181/6 22/173/6 20/177/6 29/183/6
f 31/171/2 23/170/2 22/173/2 28/181/2
f 32/182/3 33/184/3 34/185/3 35/180/3
f 32/182/6 28/181/6 29/183/6 33/186/6
f 38/187/1 36/188/1 37/189/1 39/190/1
f 39/190/3 35/180/3 34/185/3 38/187/3
f 36/188/5 30/191/5 31/192/5 37/189/5
f 37/193/2 31/171/2 35/180/2 39/190/2
f 128/194/2 140/195/2 139/196/2 127/197/2
f 53/198/1 54/12/1 57/17/1 55/21/1
f 51/199/7 50/200/7 54/12/7 49/201/7
f 25/4/2 47/16/2 48/5/2
f 97/202/3 96/203/3 51/204/3
f 41/128/4 40/205/4 44/206/4 53/198/4
f 160/207/2 180/57/2 177/208/2 161/209/2
f 193/210/3 117/211/3 116/212/3 114/213/3
f 63/11/1 56/18/1 57/17/1
f 75/37/3 74/42/3 65/41/3 66/38/3
f 56/18/1 63/11/1 62/19/1
f 62/19/1 53/198/1 55/21/1
f 1/22/1 4/139/1 47/16/1
f 71/214/5 57/215/5 56/216/5 70/146/5
f 69/217/4 55/218/4 57/219/4 71/220/4
f 55/218/3 69/217/3 68/221/3 52/222/3
f 80/223/4 81/224/4 85/225/4 86/226/4
f 151/227/3 156/228/3 157/229/3 153/230/3
f 73/31/2 72/48/2 64/47/2 65/32/2
f 107/86/5 101/84/5 189/83/5 188/87/5
f 191/93/2 113/92/2 109/90/2 188/87/2
f 87/231/1 81/232/1 74/42/1 75/37/1
f 192/233/4 178/59/4 159/234/4 158/235/4
f 80/223/1 72/48/1 73/31/1 81/224/1
f 79/34/1 58/36/1 72/236/1 80/237/1
f 78/45/1 79/34/1 80/237/1 82/238/1
f 77/28/1 82/239/1 87/240/1 76/51/1
f 175/241/3 176/58/3 181/242/3 162/243/3
f 165/244/3 174/62/3 182/61/3 183/245/3
f 82/238/3 80/237/3 86/226/3 84/246/3
f 87/240/2 82/239/2 84/246/2 83/247/2
f 90/248/3 88/249/3 89/250/3 91/251/3
f 94/252/2 90/248/2 91/251/2 95/253/2
f 99/109/1 96/111/1 152/110/1 150/107/1
f 88/249/4 92/104/4 93/106/4 89/250/4
f 126/254/2 110/255/2 108/256/2 127/257/2
f 103/258/4 99/259/4 98/260/4 102/261/4
f 95/262/1 93/106/1 151/105/1 153/102/1
f 102/261/5 101/263/5 100/264/5 103/258/5
f 162/243/3 181/242/3 179/55/3 166/265/3
f 173/266/8 195/267/8 185/63/8 174/268/8
f 104/269/1 96/203/1 100/264/1 106/270/1
f 104/269/3 51/204/3 96/203/3
f 111/271/2 109/272/2 108/256/2 110/255/2
f 115/273/4 105/274/4 104/275/4 118/276/4
f 144/277/4 104/278/4 106/279/4 143/280/4
f 110/255/5 106/279/5 107/281/5 111/271/5
f 118/276/1 104/275/1 108/282/1 112/283/1
f 112/283/2 108/282/2 109/284/2 113/285/2
f 163/286/3 167/56/3 179/55/3 181/242/3
f 81/232/1 73/287/1 59/40/1 74/42/1
f 160/207/3 186/54/3 184/53/3 166/265/3
f 186/54/9 187/288/9 170/289/9 169/290/9
f 144/291/3 122/292/3 133/293/3 145/294/3
f 142/295/3 129/296/3 194/297/3 141/298/3
f 147/299/5 118/300/5 112/301/5 128/302/5
f 123/303/4 99/304/4 103/305/4 125/306/4
f 129/307/3 114/213/3 116/212/3 194/308/3
f 121/309/4 148/310/4 130/311/4 119/312/4
f 124/313/2 100/314/2 96/315/2 122/316/2
f 146/317/2 95/318/2 91/319/2 120/320/2
f 127/321/3 108/322/3 104/278/3 144/277/3
f 143/280/5 106/279/5 110/255/5 126/254/5
f 194/308/4 116/212/4 118/300/4 147/299/4
f 122/316/3 96/315/3 99/323/3 123/324/3
f 128/325/2 112/326/2 114/213/2 129/307/2
f 125/306/5 103/305/5 100/314/5 124/313/5
f 130/311/1 148/310/1 132/327/1 131/328/1
f 135/329/1 133/330/1 134/331/1 136/332/1
f 139/333/1 145/294/1 137/334/1 138/335/1
f 131/336/3 120/320/3 119/312/3 130/311/3
f 140/337/2 128/338/2 129/339/2 142/295/2
f 147/299/6 146/340/6 120/341/6 194/308/6
f 138/342/2 126/254/2 127/257/2 139/343/2
f 137/334/5 143/344/5 126/345/5 138/335/5
f 131/346/1 132/347/1 149/348/1 141/298/1
f 136/332/5 125/306/5 124/313/5 135/349/5
f 149/350/4 147/351/4 144/352/4 145/353/4
f 143/354/6 124/355/6 122/292/6 144/291/6
f 142/295/1 141/298/1 149/348/1 140/337/1
f 194/297/3 120/356/3 131/346/3 141/298/3
f 137/334/5 135/349/5 124/313/5 143/344/5
f 145/294/1 133/293/1 135/349/1 137/334/1
f 133/357/1 132/327/1 148/310/1 134/358/1
f 128/359/6 127/360/6 144/352/6 147/351/6
f 146/361/6 122/362/6 123/363/6 121/364/6
f 156/228/1 155/365/1 154/366/1 157/367/1
f 150/368/4 155/365/4 156/228/4 151/227/4
f 150/368/5 152/369/5 154/370/5 155/365/5
f 180/57/3 160/207/3 166/265/3 179/55/3
f 160/207/2 161/209/2 187/288/2 186/54/2
f 175/241/3 182/61/3 185/63/3 159/234/3
f 169/75/1 170/371/1 42/80/1 115/69/1
f 172/60/3 163/286/3 181/242/3 176/58/3
f 159/234/3 178/59/3 176/58/3 175/241/3
f 193/210/2 114/213/2 112/326/2 113/372/2
f 121/373/5 93/374/5 95/318/5 146/317/5
f 166/265/3 184/53/3 183/245/3 162/243/3
f 175/241/3 162/243/3 183/245/3 182/61/3
f 106/270/5 100/264/5 101/263/5 107/375/5
f 81/232/5 87/231/5 83/247/5 85/225/5
f 84/246/1 86/226/1 85/225/1 83/247/1
f 169/52/3 165/244/3 183/245/3 184/53/3
f 117/211/4 115/376/4 118/300/4 116/212/4
f 171/130/1 164/132/1 163/286/1 172/60/1
f 149/350/1 145/353/1 139/196/1 140/195/1
f 163/286/1 164/132/1 168/134/1 167/56/1
f 76/377/1 87/231/1 75/37/1 60/39/1
f 61/43/1 78/45/1 82/238/1 77/378/1
f 192/233/10 171/379/10 172/380/10 178/59/10
f 191/93/6 188/87/6 189/83/6 190/66/6
f 44/206/4 49/201/4 54/12/4 53/198/4
f 89/381/4 93/382/4 121/309/4 119/312/4
f 134/331/4 123/303/4 125/306/4 136/332/4
f 77/28/4 76/51/4 66/50/4 67/29/4
f 79/34/5 78/45/5 67/44/5 64/35/5
f 10/140/1 16/142/1 53/198/1 62/19/1
f 195/15/3 173/383/3 40/13/3
f 134/358/4 148/310/4 121/309/4 123/384/4
f 154/366/2 152/385/2 153/386/2 157/367/2
f 94/101/2 95/262/2 153/102/2
f 92/104/4 98/108/4 151/105/4
f 56/216/2 52/222/2 68/221/2 70/146/2
f 51/199/11 48/387/11 47/388/11 50/200/11
f 10/389/4 196/152/4 3/26/4 11/154/4
f 133/357/2 122/362/2 146/361/2 132/327/2
f 20/114/2 24/6/2 48/5/2
f 47/16/2 25/4/2 21/77/2 46/23/2
f 36/79/2 38/118/2 43/116/2
f 45/115/2 42/121/2 29/120/2
f 161/125/3 43/136/3 42/123/3
f 14/127/1 43/116/1 41/128/1
f 147/299/5 149/348/5 132/347/5 146/340/5
f 167/390/12 168/391/12 177/208/12 180/57/12
f 9/126/1 46/23/1 43/116/1
f 5/138/1 63/11/1 47/16/1
f 63/11/1 5/138/1 196/141/1
f 196/141/1 62/19/1 63/11/1
f 195/267/4 158/235/4 159/234/4 185/63/4
f 41/128/1 53/198/1 16/142/1
f 70/143/6 68/392/6 65/32/6
f 68/144/6 69/393/6 66/38/6
f 69/145/6 71/394/6 67/29/6
f 67/44/6 71/214/6 70/146/6
f 120/320/3 91/319/3 89/381/3 119/312/3
f 104/269/3 105/395/3 51/204/3
f 43/136/3 177/135/3 192/113/3 41/14/3
