# Model made by Axel Montini
mtllib sawmill.mtl
o sawmill_Cube
v 0.000000 1.000000 -3.000000
v 0.000000 1.000000 -2.000000
v 0.000000 1.000000 -1.000000
v 0.000000 2.000000 -1.000000
v 0.000000 2.000000 -2.000000
v 0.000000 2.000000 -3.000000
v 1.000000 1.000000 -1.000000
v 1.000000 1.000000 -2.000000
v 1.000000 1.000000 -3.000000
v 1.000000 2.000000 -3.000000
v 1.000000 2.000000 -2.000000
v 1.000000 2.000000 -1.000000
v 1.000000 1.000000 -0.500000
v 0.000000 1.000000 -0.500000
v 0.000000 1.000000 -3.500000
v 1.000000 1.000000 -3.500000
v 0.125000 2.000000 -3.000000
v 0.250000 2.000000 -3.000000
v 0.375000 2.000000 -3.000000
v 0.500000 2.000000 -3.000000
v 0.625000 2.000000 -3.000000
v 0.750000 2.000000 -3.000000
v 0.875000 2.000000 -3.000000
v 0.125000 2.000000 -2.000000
v 0.875000 2.000000 -2.000000
v 0.125000 2.000000 -1.000000
v 0.250000 2.000000 -1.000000
v 0.375000 2.000000 -1.000000
v 0.500000 2.000000 -1.000000
v 0.625000 2.000000 -1.000000
v 0.750000 2.000000 -1.000000
v 0.875000 2.000000 -1.000000
v 0.875000 1.000000 -3.000000
v 0.125000 1.000000 -3.000000
v 0.875000 1.000000 -2.000000
v 0.125000 1.000000 -2.000000
v 0.875000 1.000000 -1.000000
v 0.125000 1.000000 -1.000000
v 0.875000 1.000000 -0.500000
v 0.125000 1.000000 -0.500000
v 0.875000 1.000000 -3.500000
v 0.125000 1.000000 -3.500000
v 0.125000 1.875000 -3.000000
v 0.250000 1.875000 -3.000000
v 0.375000 1.875000 -3.000000
v 0.500000 1.875000 -3.000000
v 0.625000 1.875000 -3.000000
v 0.750000 1.875000 -3.000000
v 0.875000 1.875000 -3.000000
v 0.125000 1.875000 -2.000000
v 0.250000 1.875000 -2.000000
v 0.375000 1.875000 -2.000000
v 0.500000 1.875000 -2.000000
v 0.625000 1.875000 -2.000000
v 0.750000 1.875000 -2.000000
v 0.875000 1.875000 -2.000000
v 0.125000 1.875000 -1.000000
v 0.250000 1.875000 -1.000000
v 0.375000 1.875000 -1.000000
v 0.500000 1.875000 -1.000000
v 0.625000 1.875000 -1.000000
v 0.750000 1.875000 -1.000000
v 0.875000 1.875000 -1.000000
v 0.750000 2.000000 -2.000000
v 0.875000 2.000000 -2.000000
v 0.625000 2.000000 -2.000000
v 0.500000 2.000000 -2.000000
v 0.375000 2.000000 -2.000000
v 0.250000 2.000000 -2.000000
v 0.125000 2.000000 -2.000000
v 1.000000 1.750000 -3.000000
v 1.000000 1.500000 -3.000000
v 1.000000 1.250000 -3.000000
v 1.000000 1.750000 -2.000000
v 1.000000 1.500000 -2.000000
v 1.000000 1.250000 -2.000000
v 1.000000 1.000000 -2.250000
v 1.000000 1.000000 -2.750000
v 1.000000 1.250000 -2.750000
v 1.000000 1.250000 -2.250000
v 1.000000 1.500000 -2.750000
v 1.000000 1.500000 -2.500000
v 1.000000 1.500000 -2.250000
v 1.000000 1.250000 -3.375000
v 1.000000 1.500001 -3.250000
v 1.000000 2.000000 -2.250001
v 1.000000 1.750000 -2.250001
v 1.000000 1.750000 -2.500000
v 1.000000 2.000000 -2.500000
v 1.000000 2.000000 -2.750000
v 1.000000 1.750000 -2.750000
v 1.000000 1.750006 -3.124997
v 0.625000 2.000000 -2.750000
v 0.375000 1.875000 -2.749999
v 0.000000 1.000000 -2.749999
v 0.500000 2.000000 -2.750000
v 0.250000 1.875000 -2.749999
v 0.375000 2.000000 -2.749999
v 0.125000 1.875000 -2.749999
v 0.875000 1.875000 -2.750000
v 0.875000 1.000000 -2.750000
v 0.125000 1.000000 -2.749999
v 0.250000 2.000000 -2.749999
v 0.750000 1.875000 -2.750000
v 0.000000 2.000000 -2.749999
v 0.125000 2.000000 -2.749999
v 0.750000 2.000000 -2.750000
v 0.125000 2.000000 -2.749999
v 0.625000 1.875000 -2.750000
v 0.875000 2.000000 -2.750000
v 0.875000 2.000000 -2.750000
v 0.500000 1.875000 -2.750000
v 0.625000 2.000000 -2.500000
v 0.000000 2.000000 -2.499999
v 0.375000 1.875000 -2.500000
v 0.000000 1.000000 -2.499999
v 0.500000 2.000000 -2.500000
v 0.250000 1.875000 -2.500000
v 0.375000 2.000000 -2.500000
v 0.125000 1.875000 -2.499999
v 0.875000 1.875000 -2.500000
v 0.125000 1.000000 -2.499999
v 0.250000 2.000000 -2.500000
v 0.750000 1.875000 -2.500000
v 0.125000 2.000000 -2.499999
v 0.750000 2.000000 -2.500000
v 0.125000 2.000000 -2.499999
v 0.875000 2.000000 -2.500000
v 0.625000 1.875000 -2.500000
v 0.875000 2.000000 -2.500000
v 0.500000 1.875000 -2.500000
v 0.625000 2.000000 -2.250001
v 0.375000 1.875000 -2.250001
v 0.000000 1.000000 -2.250001
v 0.500000 2.000000 -2.250001
v 0.000000 2.000000 -2.250001
v 0.250000 1.875000 -2.250001
v 0.375000 2.000000 -2.250001
v 0.125000 1.875000 -2.250001
v 0.875000 1.875000 -2.250001
v 0.875000 1.000000 -2.250001
v 0.125000 1.000000 -2.250001
v 0.250000 2.000000 -2.250001
v 0.750000 1.875000 -2.250001
v 0.125000 2.000000 -2.250001
v 0.750000 2.000000 -2.250001
v 0.125000 2.000000 -2.250001
v 0.875000 2.000000 -2.250001
v 0.625000 1.875000 -2.250001
v 0.875000 2.000000 -2.250001
v 0.500000 1.875000 -2.250001
v 0.875000 1.750006 -3.124997
v 0.875000 1.500000 -2.000000
v 0.875000 1.500000 -2.500000
v 0.875000 1.500000 -3.000000
v 0.875000 1.500000 -1.000000
v 0.875000 1.500000 -2.750000
v 1.000000 1.500000 -0.750000
v 1.000000 1.500000 -1.000000
v 0.875000 1.500000 -2.250001
v 0.875000 1.500000 -3.250000
v 0.875000 1.500000 -0.750000
v 0.875000 1.250000 -3.000000
v 0.875000 1.250000 -2.750000
v 0.875000 1.250000 -1.000000
v 0.875000 1.250000 -2.000000
v 0.875000 1.250000 -0.625000
v 1.000000 1.250000 -1.000000
v 0.875000 1.250000 -2.250001
v 1.000000 1.250000 -0.625000
v 0.875000 1.250000 -3.375000
v 1.000000 1.750000 -1.000000
v 1.000000 1.000000 0.000001
v -0.000000 1.000000 0.000000
v 0.000000 0.000000 -4.000000
v 1.000000 0.000000 -2.000000
v 1.000000 0.000000 -3.000000
v 1.000000 1.000000 -2.000000
v 2.000000 0.000000 -1.999999
v 0.000000 1.000000 -2.000000
v 1.000000 1.000000 0.000001
v -0.000000 1.000000 0.000000
v 1.000000 0.000000 0.000001
v 0.000000 0.000000 -2.000000
v -0.000000 0.000000 0.000000
v 1.000000 0.000000 -4.000000
v 0.000000 1.000000 -4.000000
v 1.000000 1.000000 -4.000000
v 2.000000 0.000000 -3.000000
v 2.000000 1.000000 -3.000000
v 2.000000 1.000000 -1.999999
v 1.000000 1.000000 -3.000000
v 0.000000 1.000000 -2.999999
v 0.000000 0.000000 -2.999999
vt 0.6254 0.6879
vt 0.7505 0.6879
vt 0.6254 0.7505
vt 0.8755 0.0625
vt 0.8443 0.0625
vt 0.8443 0.0156
vt 0.8755 0.0000
vt 0.5941 0.7505
vt 0.5785 0.7505
vt 0.5785 0.7192
vt 0.5941 0.7192
vt 0.5941 0.6254
vt 0.5785 0.6254
vt 0.5785 0.5003
vt 0.5941 0.5003
vt 0.7817 0.3127
vt 0.7505 0.3127
vt 0.7505 0.2814
vt 0.7817 0.2814
vt 0.8755 0.1876
vt 0.8443 0.1876
vt 0.6254 0.4378
vt 0.7505 0.4378
vt 0.7505 0.5628
vt 0.6254 0.5628
vt 0.7505 0.5941
vt 0.6254 0.5941
vt 0.6254 0.3752
vt 0.8755 0.3752
vt 0.8443 0.3596
vt 0.8443 0.3127
vt 0.8755 0.3127
vt 0.6097 0.7666
vt 0.5941 0.7666
vt 0.5941 0.7333
vt 0.6097 0.7333
vt 0.2658 0.7505
vt 0.2658 0.8165
vt 0.2502 0.8165
vt 0.2502 0.7505
vt 0.2814 0.7505
vt 0.2814 0.8826
vt 0.2658 0.8826
vt 0.2658 0.7505
vt 0.2971 0.6254
vt 0.2971 0.5003
vt 0.2814 0.5003
vt 0.2814 0.6254
vt 0.3127 0.6254
vt 0.3127 0.5003
vt 0.3283 0.6254
vt 0.3283 0.5003
vt 0.3440 0.6254
vt 0.3440 0.5003
vt 0.7505 0.3127
vt 0.7505 0.3752
vt 0.7192 0.3596
vt 0.7192 0.3127
vt 0.1251 0.5003
vt 0.1251 0.5628
vt 0.0000 0.5628
vt 0.5941 0.5003
vt 0.6097 0.5003
vt 0.6097 0.6335
vt 0.5941 0.6335
vt 0.7505 0.0000
vt 0.7505 0.0625
vt 0.7192 0.0625
vt 0.7192 0.0156
vt 0.7505 0.1876
vt 0.7192 0.1876
vt 0.7192 0.1563
vt 0.7505 0.1563
vt 0.1251 0.6879
vt 0.0000 0.6879
vt 0.1251 0.7192
vt 0.0000 0.7192
vt 0.1251 0.8130
vt 0.1251 0.8755
vt 0.0000 0.8130
vt 0.5785 0.6254
vt 0.5628 0.6254
vt 0.5628 0.5003
vt 0.5785 0.5003
vt 0.6252 0.5316
vt 0.6097 0.5316
vt 0.6097 0.5472
vt 0.6252 0.5472
vt 0.6252 0.6410
vt 0.6097 0.6410
vt 0.6097 0.6566
vt 0.6252 0.6566
vt 0.6097 0.5628
vt 0.6252 0.5628
vt 0.6252 0.6254
vt 0.6097 0.6254
vt 0.6097 0.5785
vt 0.6252 0.5785
vt 0.5785 0.7505
vt 0.5628 0.7505
vt 0.5628 0.7192
vt 0.5785 0.7192
vt 0.6252 0.6097
vt 0.6097 0.6097
vt 0.6097 0.5941
vt 0.6252 0.5941
vt 0.6252 0.5941
vt 0.6097 0.5941
vt 0.2658 0.5003
vt 0.2658 0.6254
vt 0.2502 0.5003
vt 0.2502 0.6254
vt 0.3440 0.7505
vt 0.3440 0.7192
vt 0.3283 0.7192
vt 0.3283 0.7505
vt 0.3127 0.7192
vt 0.3127 0.7505
vt 0.2971 0.7192
vt 0.2971 0.7505
vt 0.2814 0.7192
vt 0.2814 0.7505
vt 0.2658 0.7192
vt 0.2658 0.7505
vt 0.2502 0.7192
vt 0.2502 0.7505
vt 0.6097 0.6723
vt 0.6252 0.6723
vt 0.6252 0.5159
vt 0.6097 0.5159
vt 0.6097 0.6879
vt 0.6252 0.6879
vt 0.6252 0.5003
vt 0.6097 0.5003
vt 0.4378 0.6254
vt 0.4221 0.6254
vt 0.4221 0.7505
vt 0.4378 0.7505
vt 0.4065 0.6254
vt 0.4065 0.7505
vt 0.3909 0.6254
vt 0.3909 0.7505
vt 0.3752 0.6254
vt 0.3752 0.7505
vt 0.3596 0.6254
vt 0.3596 0.7505
vt 0.3440 0.6254
vt 0.3440 0.7505
vt 0.3596 0.5003
vt 0.3440 0.5003
vt 0.3440 0.5316
vt 0.3596 0.5316
vt 0.3752 0.5003
vt 0.3752 0.5316
vt 0.3909 0.5003
vt 0.3909 0.5316
vt 0.4065 0.5003
vt 0.4065 0.5316
vt 0.4221 0.5003
vt 0.4221 0.5316
vt 0.4378 0.5003
vt 0.4378 0.5316
vt 0.8755 0.2189
vt 0.8443 0.2189
vt 0.8130 0.2189
vt 0.8130 0.1876
vt 0.8130 0.3127
vt 0.8130 0.2814
vt 0.8443 0.2814
vt 0.8755 0.2814
vt 0.8130 0.3440
vt 0.7817 0.3283
vt 0.7817 0.2189
vt 0.7817 0.1876
vt 0.7505 0.2189
vt 0.7505 0.1876
vt 0.8130 0.2502
vt 0.7817 0.2502
vt 0.7505 0.2502
vt 0.3283 0.6879
vt 0.3127 0.6879
vt 0.3909 0.5628
vt 0.4065 0.5628
vt 0.3440 0.6879
vt 0.7505 0.0938
vt 0.7192 0.0938
vt 0.3752 0.5628
vt 0.2658 0.6879
vt 0.2502 0.6879
vt 0.3596 0.5628
vt 0.2814 0.6879
vt 0.3440 0.5628
vt 0.6254 0.6566
vt 0.7505 0.6566
vt 0.0000 0.7817
vt 0.1251 0.7817
vt 0.4221 0.5628
vt 0.4378 0.5628
vt 0.5628 0.6879
vt 0.5785 0.6879
vt 0.2971 0.6879
vt 0.5785 0.6879
vt 0.5941 0.6879
vt 0.3909 0.5941
vt 0.4065 0.5941
vt 0.3440 0.5941
vt 0.3596 0.5941
vt 0.5628 0.6566
vt 0.5785 0.6566
vt 0.3752 0.5941
vt 0.3283 0.6566
vt 0.3127 0.6566
vt 0.2814 0.6566
vt 0.2658 0.6566
vt 0.4221 0.5941
vt 0.4378 0.5941
vt 0.5785 0.6566
vt 0.5941 0.6566
vt 0.3440 0.6566
vt 0.2971 0.6566
vt 0.6254 0.6254
vt 0.7505 0.6254
vt 0.0000 0.7505
vt 0.1251 0.7505
vt 0.2502 0.6566
vt 0.5941 0.7000
vt 0.6097 0.7000
vt 0.6879 0.3127
vt 0.6879 0.3440
vt 0.6254 0.3127
vt 0.8130 0.0313
vt 0.8130 0.0625
vt 0.7817 0.0625
vt 0.7505 0.0625
vt 0.2658 0.8496
vt 0.2502 0.8496
vt 0.6879 0.1563
vt 0.6879 0.1876
vt 0.6254 0.1876
vt 0.6254 0.1563
vt 0.6879 0.0938
vt 0.6879 0.1251
vt 0.6254 0.1251
vt 0.6254 0.0938
vt 0.5941 0.6668
vt 0.6097 0.6668
vt 0.6879 0.0625
vt 0.6254 0.0625
vt 0.6879 0.0313
vt 0.6566 0.0469
vt 0.5941 0.6335
vt 0.6097 0.6335
vt 0.2658 0.8826
vt 0.2502 0.8826
vt 0.3283 0.8123
vt 0.3127 0.8123
vt 0.3127 0.7814
vt 0.3283 0.7814
vt 0.3127 0.7505
vt 0.3283 0.7505
vt 0.3127 0.7815
vt 0.3127 0.8125
vt 0.2971 0.8125
vt 0.2971 0.7815
vt 0.2971 0.7505
vt 0.3127 0.7505
vt 0.2971 0.7817
vt 0.2814 0.7817
vt 0.2814 0.7505
vt 0.2971 0.7505
vt 0.2971 0.8130
vt 0.2814 0.8130
vt 0.8745 0.5003
vt 0.8745 0.3752
vt 0.7505 0.3752
vt 0.7505 0.5003
vt 0.5003 0.5003
vt 0.6254 0.5003
vt 0.6254 0.3752
vt 0.5003 0.3752
vt 0.3752 0.3752
vt 0.3752 0.5003
vt 0.0000 0.3752
vt 0.1251 0.3752
vt 0.1251 0.2502
vt 0.0000 0.2502
vt 0.1251 0.0000
vt 0.0000 0.0000
vt 0.1251 0.7505
vt 0.1251 0.8755
vt 0.2487 0.8755
vt 0.2487 0.7505
vt 0.4378 0.6254
vt 0.5628 0.6254
vt 0.5628 0.5003
vt 0.4378 0.5003
vt 0.0000 0.5003
vt 0.1251 0.5003
vt 0.7505 0.7505
vt 0.8741 0.7505
vt 0.8741 0.6254
vt 0.7505 0.6254
vt 0.6254 0.2502
vt 0.5003 0.2502
vt 0.5003 0.0000
vt 0.3752 0.0000
vt 0.3752 0.2502
vt 0.7505 0.6254
vt 0.8745 0.6254
vt 0.8745 0.5003
vt 0.7505 0.5003
vt 0.5628 0.7505
vt 0.5628 0.6254
vt 0.4378 0.6254
vt 0.4378 0.7505
vt 0.6254 0.0000
vt 0.1251 0.5003
vt 0.1251 0.7505
vt 0.2502 0.7505
vt 0.2502 0.5003
vt 0.2502 0.3752
vt 0.2502 0.2502
vt 0.2502 0.3752
vt 0.2502 0.2502
vn -1.0000 0.0000 0.0000
vn 1.0000 0.0000 0.0000
vn 0.0000 1.0000 0.0000
vn -0.0000 0.4472 -0.8944
vn -0.0000 0.4472 0.8944
vn 0.0000 -1.0000 0.0000
vn 0.0000 0.0000 -1.0000
vn 0.0000 0.0000 1.0000
usemtl SawmillMat
f 1/1/1 6/2/1 15/3/1
f 7/4/2 168/5/2 170/6/2 13/7/2
f 17/8/3 6/9/3 105/10/3 108/11/3
f 24/12/3 5/13/3 4/14/3 26/15/3
f 71/16/2 10/17/2 90/18/2 91/19/2
f 8/20/2 76/21/2 168/5/2 7/4/2
f 3/22/1 4/23/1 5/24/1 2/25/1
f 2/25/1 5/24/1 136/26/1 134/27/1
f 14/28/1 4/23/1 3/22/1
f 16/29/2 84/30/2 73/31/2 9/32/2
f 23/33/4 10/34/4 92/35/4 152/36/4
f 32/37/5 162/38/5 158/39/5 12/40/5
f 4/41/5 14/42/5 40/43/5 26/44/5
f 53/45/6 60/46/6 59/47/6 52/48/6
f 54/49/6 61/50/6 60/46/6 53/45/6
f 55/51/6 62/52/6 61/50/6 54/49/6
f 56/53/6 63/54/6 62/52/6 55/51/6
f 37/55/1 39/56/1 167/57/1 165/58/1
f 40/59/2 38/60/2 26/61/2
f 6/62/4 17/63/4 42/64/4 15/65/4
f 41/66/1 33/67/1 163/68/1 171/69/1
f 35/70/1 166/71/1 169/72/1 141/73/1
f 37/55/1 165/58/1 166/71/1 35/70/1
f 26/61/2 38/60/2 36/74/2 24/75/2
f 24/75/2 36/74/2 142/76/2 147/77/2
f 34/78/2 42/79/2 17/80/2
f 11/81/3 25/82/3 32/83/3 12/84/3
f 21/85/7 47/86/7 46/87/7 20/88/7
f 29/89/8 60/90/8 61/91/8 30/92/8
f 20/88/7 46/87/7 45/93/7 19/94/7
f 28/95/8 59/96/8 60/90/8 29/89/8
f 19/94/7 45/93/7 44/97/7 18/98/7
f 10/99/3 23/100/3 110/101/3 90/102/3
f 27/103/8 58/104/8 59/96/8 28/95/8
f 18/98/7 44/97/7 43/105/7 17/106/7
f 26/107/8 57/108/8 58/104/8 27/103/8
f 52/48/6 59/47/6 58/109/6 51/110/6
f 51/110/6 58/109/6 57/111/6 50/112/6
f 49/113/6 100/114/6 104/115/6 48/116/6
f 48/116/6 104/115/6 109/117/6 47/118/6
f 47/118/6 109/117/6 112/119/6 46/120/6
f 46/120/6 112/119/6 94/121/6 45/122/6
f 45/122/6 94/121/6 97/123/6 44/124/6
f 44/124/6 97/123/6 99/125/6 43/126/6
f 30/92/8 61/91/8 62/127/8 31/128/8
f 22/129/7 48/130/7 47/86/7 21/85/7
f 31/128/8 62/127/8 63/131/8 32/132/8
f 23/133/7 49/134/7 48/130/7 22/129/7
f 65/135/3 64/136/3 31/137/3 32/138/3
f 64/136/3 66/139/3 30/140/3 31/137/3
f 66/139/3 67/141/3 29/142/3 30/140/3
f 67/141/3 68/143/3 28/144/3 29/142/3
f 68/143/3 69/145/3 27/146/3 28/144/3
f 69/145/3 70/147/3 26/148/3 27/146/3
f 18/149/3 17/150/3 106/151/3 103/152/3
f 19/153/3 18/149/3 103/152/3 98/154/3
f 20/155/3 19/153/3 98/154/3 96/156/3
f 21/157/3 20/155/3 96/156/3 93/158/3
f 22/159/3 21/157/3 93/158/3 107/160/3
f 23/161/3 22/159/3 107/160/3 111/162/3
f 77/163/2 80/164/2 76/21/2 8/20/2
f 80/164/2 83/165/2 75/166/2 76/21/2
f 72/167/2 71/16/2 91/19/2 81/168/2
f 73/31/2 72/167/2 81/168/2 79/169/2
f 9/32/2 73/31/2 79/169/2 78/170/2
f 73/31/2 84/30/2 85/171/2 72/167/2
f 72/167/2 85/171/2 92/172/2 71/16/2
f 83/165/2 87/173/2 74/174/2 75/166/2
f 87/173/2 86/175/2 11/176/2 74/174/2
f 82/177/2 88/178/2 87/173/2 83/165/2
f 88/178/2 89/179/2 86/175/2 87/173/2
f 81/168/2 91/19/2 88/178/2 82/177/2
f 91/19/2 90/18/2 89/179/2 88/178/2
f 71/16/2 92/172/2 10/17/2
f 104/115/6 124/180/6 129/181/6 109/117/6
f 96/156/3 117/182/3 113/183/3 93/158/3
f 100/114/6 121/184/6 124/180/6 104/115/6
f 101/185/1 164/186/1 163/68/1 33/67/1
f 98/154/3 119/187/3 117/182/3 96/156/3
f 97/123/6 118/188/6 120/189/6 99/125/6
f 103/152/3 123/190/3 119/187/3 98/154/3
f 94/121/6 115/191/6 118/188/6 97/123/6
f 106/151/3 125/192/3 123/190/3 103/152/3
f 95/193/1 105/194/1 6/2/1 1/1/1
f 108/195/2 102/196/2 34/78/2 17/80/2
f 107/160/3 126/197/3 130/198/3 111/162/3
f 90/102/3 110/101/3 128/199/3 89/200/3
f 112/119/6 131/201/6 115/191/6 94/121/6
f 109/117/6 129/181/6 131/201/6 112/119/6
f 108/11/3 105/10/3 114/202/3 127/203/3
f 93/158/3 113/183/3 126/197/3 107/160/3
f 117/182/3 135/204/3 132/205/3 113/183/3
f 125/192/3 145/206/3 143/207/3 123/190/3
f 89/200/3 128/199/3 148/208/3 86/209/3
f 123/190/3 143/207/3 138/210/3 119/187/3
f 124/180/6 144/211/6 149/212/6 129/181/6
f 119/187/3 138/210/3 135/204/3 117/182/3
f 115/191/6 133/213/6 137/214/6 118/188/6
f 126/197/3 146/215/3 150/216/3 130/198/3
f 113/183/3 132/205/3 146/215/3 126/197/3
f 127/203/3 114/202/3 136/217/3 147/218/3
f 121/184/6 140/219/6 144/211/6 124/180/6
f 129/181/6 149/212/6 151/220/6 131/201/6
f 131/201/6 151/220/6 133/213/6 115/191/6
f 116/221/1 114/222/1 105/194/1 95/193/1
f 127/223/2 122/224/2 102/196/2 108/195/2
f 118/188/6 137/214/6 139/225/6 120/189/6
f 135/204/3 67/141/3 66/139/3 132/205/3
f 138/210/3 68/143/3 67/141/3 135/204/3
f 137/214/6 51/110/6 50/112/6 139/225/6
f 144/211/6 55/51/6 54/49/6 149/212/6
f 149/212/6 54/49/6 53/45/6 151/220/6
f 143/207/3 69/145/3 68/143/3 138/210/3
f 86/209/3 148/208/3 25/82/3 11/81/3
f 132/205/3 66/139/3 64/136/3 146/215/3
f 140/219/6 56/53/6 55/51/6 144/211/6
f 145/206/3 70/147/3 69/145/3 143/207/3
f 146/215/3 64/136/3 65/135/3 150/216/3
f 134/27/1 136/26/1 114/222/1 116/221/1
f 151/220/6 53/45/6 52/48/6 133/213/6
f 133/213/6 52/48/6 51/110/6 137/214/6
f 147/77/2 142/76/2 122/224/2 127/223/2
f 147/218/3 136/217/3 5/13/3 24/12/3
f 152/36/4 92/35/4 85/226/4 161/227/4
f 156/228/1 162/229/1 32/230/1
f 158/231/2 159/232/2 172/233/2 12/234/2
f 159/232/2 75/166/2 74/174/2 172/233/2
f 158/39/5 162/38/5 167/235/5 170/236/5
f 160/237/1 153/238/1 25/239/1 148/240/1
f 153/238/1 156/228/1 32/230/1 25/239/1
f 157/241/1 154/242/1 128/243/1 110/244/1
f 154/242/1 160/237/1 148/240/1 128/243/1
f 161/227/4 85/226/4 84/245/4 171/246/4
f 155/247/1 157/241/1 110/244/1 23/248/1
f 161/249/1 155/247/1 23/248/1 152/250/1
f 165/58/1 167/57/1 162/229/1 156/228/1
f 170/6/2 168/5/2 159/232/2 158/231/2
f 168/5/2 76/21/2 75/166/2 159/232/2
f 171/246/4 84/245/4 16/251/4 41/252/4
f 169/72/1 166/71/1 153/238/1 160/237/1
f 166/71/1 165/58/1 156/228/1 153/238/1
f 170/236/5 167/235/5 39/253/5 13/254/5
f 163/68/1 164/186/1 157/241/1 155/247/1
f 171/69/1 163/68/1 155/247/1 161/249/1
f 172/233/2 74/174/2 11/176/2 12/234/2
f 77/255/7 141/256/7 169/257/7 80/258/7
f 80/258/7 169/257/7 160/259/7 83/260/7
f 79/261/8 81/262/8 157/263/8 164/264/8
f 101/265/8 78/266/8 79/261/8 164/264/8
f 82/267/6 154/268/6 157/269/6 81/270/6
f 83/271/6 160/272/6 154/268/6 82/267/6
f 186/273/7 175/274/7 187/275/7 188/276/7
f 187/277/1 175/278/1 194/279/1 193/280/1
f 192/281/3 188/282/3 187/277/3 193/280/3
f 194/283/6 177/284/6 176/285/6 184/286/6
f 184/286/6 176/285/6 183/287/6 185/288/6
f 176/289/8 179/290/8 191/291/8 178/292/8
f 191/293/2 179/294/2 189/295/2 190/296/2
f 194/283/6 175/297/6 186/298/6 177/284/6
f 183/299/8 173/300/8 174/301/8 185/302/8
f 193/280/1 194/279/1 184/303/1 180/304/1
f 174/305/3 173/306/3 178/307/3 180/304/3
f 177/308/7 192/309/7 190/310/7 189/311/7
f 177/312/2 186/313/2 188/314/2 192/315/2
f 184/303/1 185/316/1 174/305/1 180/304/1
f 178/317/2 173/318/2 183/319/2 176/320/2
f 192/281/3 193/280/3 180/304/3 178/307/3
f 176/285/6 177/284/6 189/321/6 179/322/6
f 190/323/3 192/281/3 178/307/3 191/324/3
